<?xml version="1.0" encoding="UTF-8"?><svg id="Layer_1" xmlns="http://www.w3.org/2000/svg" viewBox="0 0 1218.43 399.58"><path d="m132.29,133.1h31.03l35.21,101.07,36.16-101.07h29.88v133.24h-22.84v-90.03l-32.74,90.03h-20.94l-32.74-89.65v89.65h-23.03v-133.24Z"/><path d="m276.65,218.75c0-30.07,21.32-49.87,46.06-49.87,14.09,0,27.28,5.33,32.42,12.18v-9.9s20.12,0,20.12,0v95.17h-20.12v-10.28c-4.57,6.66-17.57,12.56-32.99,12.56-25.51,0-45.49-20.94-45.49-49.87Zm77.66,0c0-18.08-11.61-30.26-27.41-30.26s-27.6,12.56-27.6,30.26,11.61,30.26,27.6,30.26,27.41-12.18,27.41-30.26Z"/><path d="m453.83,133.1h22.27v133.24h-22.27v-133.24Z"/><path d="m533.71,268.62c-29.31,0-47.78-20.94-47.78-49.68s19.22-50.06,47.59-50.06c30.84,0,46.82,21.89,46.82,47.21,0,2.66-.19,6.09-.76,8.57h-71.76c2.28,17.13,13.13,24.36,27.22,24.36,11.99,0,19.23-5.9,23.6-14.28l18.46,8.57c-7.04,15.04-21.7,25.32-43.4,25.32Zm-25.51-59.77h49.68c-1.71-13.9-11.61-21.51-24.36-21.51-11.8,0-22.46,6.28-25.32,21.51Z"/><path d="m601.65,304.4l15.23-41.49-37.5-91.75h23.79l24.74,66.43,22.65-66.43h23.41l-49.49,133.24h-22.84Z"/><path d="m855.38,199.72c0-39.78,26.46-68.9,66.24-68.9,26.84,0,46.44,11.99,56.15,31.98l-20.56,11.42c-6.47-13.13-17.7-21.89-36.16-21.89-23.03,0-41.69,19.22-41.69,47.4s19.03,47.4,42.45,47.4c17.7,0,30.26-9.14,36.74-21.32l20.56,9.9c-9.9,19.99-29.88,32.93-58.44,32.93-39.02,0-65.29-29.5-65.29-68.9Z"/><path d="m986.02,218.75c0-28.74,21.51-49.87,50.06-49.87s50.06,21.13,50.06,49.87-21.32,49.87-50.06,49.87-50.06-21.13-50.06-49.87Zm77.47,0c0-17.7-11.61-30.07-27.41-30.07s-27.6,12.37-27.6,30.07,11.8,30.07,27.6,30.07,27.41-12.56,27.41-30.07Z"/><path d="m444.63,170.78v21.32h-13.51c-12.75,0-21.51,9.71-21.51,22.08v52.53h-21.7v-95.93h21.32v10.85c5.52-7.23,14.47-10.85,24.17-10.85h11.23Z"/><path d="m821.77,266.3l-17.17-21.55c5.37-8.23,8.5-18.04,8.5-28.6,0-16.98-8.08-32.07-20.61-41.66l-12.21,15.67c7.87,5.95,12.96,15.39,12.96,25.99,0,4.1-.77,8.02-2.16,11.64l-54.67-68.61c-.95-1.19-.71-2.34-.35-3.1.36-.76,1.12-1.66,2.64-1.66h51.9v-21.32h-51.9c-9.4,0-17.77,5.26-21.85,13.73-4.08,8.47-2.98,18.29,2.88,25.64l4.66,5.85c-9.96,9.54-16.17,22.96-16.17,37.84,0,28.96,23.47,52.43,52.43,52.43,10.64,0,20.53-3.18,28.79-8.62l5.05,6.34h27.26Zm-61.1-17.57c-17.96,0-32.57-14.61-32.57-32.57,0-8.57,3.34-16.37,8.78-22.19l40.13,50.36c-4.8,2.8-10.38,4.41-16.33,4.41Z"/></svg>