<svg width="110" height="29" viewBox="0 0 110 29" fill="none" xmlns="http://www.w3.org/2000/svg">
<path d="M43.9357 0H46.6825V12.4243H43.9357V6.99308H38.5142V12.4243H35.7492V0H38.5142V5.05845H43.9357V0ZM57.5707 0H60.4441L55.4563 7.59655V12.4243H52.6191V7.66754L47.7578 0H51.083L54.2636 5.30693L57.5707 0ZM64.324 10.4896H70.5768V12.4243H61.5591V0H64.324V10.4896ZM81.4686 12.4243L80.4023 9.30045H75.1977L74.0773 12.4243H71.4027L76.029 0H79.8963L84.36 12.4243H81.4686ZM75.8844 7.40131H79.7518L77.8723 1.89914L75.8844 7.40131ZM94.1747 0H96.6144V12.4243H93.741L88.0304 3.81602V12.4243H85.5907V0H88.4641L94.1747 8.50174V0ZM109.998 6.21213C109.998 10.0637 107.45 12.4243 103.113 12.4243H98.3059V0H103.402C107.522 0 109.998 2.37836 109.998 6.21213ZM102.968 10.5074C105.733 10.5074 107.107 8.92772 107.107 6.22988C107.107 3.53204 105.824 1.91689 103.004 1.91689H101.071V10.5074H102.968ZM46.6482 25.0935C46.6482 27.5606 44.8411 28.7142 41.8592 28.7142H35.751V16.29H42.3833C44.6242 16.29 46.3591 17.2484 46.3591 19.3605C46.3591 20.9402 45.4193 21.8809 43.8833 22.1294C45.582 22.2891 46.6482 23.3363 46.6482 25.0935ZM37.1245 17.4792V21.6324H41.4436C43.8471 21.6324 45.0037 21.0467 45.0037 19.538C45.0037 18.1181 43.8652 17.4792 42.058 17.4792H37.1245ZM41.9315 27.5251C43.9917 27.5251 45.2567 26.7974 45.2567 25.058C45.2567 23.4783 44.1001 22.8216 42.1665 22.8216H37.1245V27.5251H41.9315ZM52.7636 24.3658V16.29H54.1552V24.2593C54.1552 26.6199 55.3659 27.8268 57.9683 27.8268C60.5706 27.8268 61.7814 26.6199 61.7814 24.2593V16.29H63.1006V24.3658C63.1006 27.3476 61.4922 28.9982 57.9683 28.9982C54.4443 28.9982 52.7636 27.3476 52.7636 24.3658ZM72.8936 28.7142V16.29H74.267V28.7142H72.8936ZM86.581 27.5251H93.2494V28.7142H85.2076V16.29H86.581V27.5251ZM110 17.4792H104.841V28.7142H103.467V17.4792H98.3077V16.29H110V17.4792ZM19.2137 0V11.7161H11.5532V0H4.96065V11.7161H0V17.2839H4.96065V29H11.5532V17.0834L15.3843 14.4104L19.2155 17.0834V29H25.808V17.2839H30.7687V11.7161H25.808V0H19.2155H19.2137Z" fill="black"/>
</svg>
